# xmcd
#
# Track frame offsets: 
#        150
#        20324
#        36336
#        54859
#        71030
#        89057
#        104456
#        124271
#        145877
#        161785
#        183520
#        201703
#        214049
#        230608
#        256687
#        279901
#        299707
#
# Disc length: 4266 seconds
#
# Revision: 2
# Processed by: cddbd v1.5.2PL0 Copyright (c) Steve Scherf et al.
# Submitted via: ExactAudioCopy v1.0b4
#
DISCID=0d10a811
DTITLE=Eric Clapton - Give Me Strength: The '74'75 Recordings [CD2]
DTITLE=There's One In Every Crowd
DYEAR=1974
DGENRE=Classic Rock
TTITLE0=We've Been Told (Jesus Is Coming Soon)
TTITLE1=Swing Low Sweet Chariot
TTITLE2=Little Rachel
TTITLE3=Don't Blame Me
TTITLE4=The Sky Is Crying
TTITLE5=Singin' The Blues
TTITLE6=Better Make It Through Today
TTITLE7=Pretty Blue Eyes
TTITLE8=High
TTITLE9=Opposites
TTITLE10=Burial [Out-Take]
TTITLE11=Whatcha Gonna Do [Out-Take]
TTITLE12=I Found A Love [Out-Take]
TTITLE13=(When Things Go Wrong) It Hurts Me Too [Out-Take]
TTITLE14=Fools Like Me [Out-Take]
TTITLE15=Knockin' On Heaven's Door [Non-Album Single]
TTITLE16=Someone Like You [B-Side Knockin' On Heaven's Door]
EXTD=
EXTT0=
EXTT1=
EXTT2=
EXTT3=
EXTT4=
EXTT5=
EXTT6=
EXTT7=
EXTT8=
EXTT9=
EXTT10=
EXTT11=
EXTT12=
EXTT13=
EXTT14=
EXTT15=
EXTT16=
PLAYORDER=
